<svg width="14" height="14" viewBox="0 0 14 14" fill="none" xmlns="http://www.w3.org/2000/svg">
<path fill-rule="evenodd" clip-rule="evenodd" d="M10 6.34505C10 8.64624 8.13452 10.5117 5.83333 10.5117C3.53215 10.5117 1.66667 8.64624 1.66667 6.34505C1.66667 4.04387 3.53215 2.17839 5.83333 2.17839C8.13452 2.17839 10 4.04387 10 6.34505ZM0 6.34505C0 9.56671 2.61167 12.1784 5.83333 12.1784C7.14361 12.1784 8.35299 11.7464 9.32681 11.017L11.9107 13.601C12.2362 13.9264 12.7638 13.9264 13.0893 13.601C13.4147 13.2755 13.4147 12.7479 13.0893 12.4225L10.5053 9.83853C11.2347 8.86471 11.6667 7.65533 11.6667 6.34505C11.6667 3.12339 9.05499 0.511719 5.83333 0.511719C2.61167 0.511719 0 3.12339 0 6.34505Z" fill="#B0B7C3"/>
</svg>
