<svg width="17" height="18" viewBox="0 0 17 18" fill="none" xmlns="http://www.w3.org/2000/svg">
<g opacity="0.702869">
<path d="M0 3.55382H1.77778H16" stroke="#666666" stroke-width="1.77778" stroke-linecap="round" stroke-linejoin="round"/>
<path d="M15.1112 3.55556C15.1112 3.06464 14.7132 2.66667 14.2223 2.66667C13.7314 2.66667 13.3334 3.06464 13.3334 3.55556H15.1112ZM2.66672 3.55556C2.66672 3.06464 2.26875 2.66667 1.77783 2.66667C1.28691 2.66667 0.888943 3.06464 0.888943 3.55556H2.66672ZM3.55561 3.55556C3.55561 4.04648 3.95358 4.44444 4.4445 4.44444C4.93542 4.44444 5.33339 4.04648 5.33339 3.55556H3.55561ZM10.6667 3.55556C10.6667 4.04648 11.0647 4.44444 11.5556 4.44444C12.0465 4.44444 12.4445 4.04648 12.4445 3.55556H10.6667ZM13.3334 3.55556V16H15.1112V3.55556H13.3334ZM13.3334 16C13.3334 16.4909 12.9354 16.8889 12.4445 16.8889V18.6667C13.9173 18.6667 15.1112 17.4728 15.1112 16H13.3334ZM12.4445 16.8889H3.55561V18.6667H12.4445V16.8889ZM3.55561 16.8889C3.06469 16.8889 2.66672 16.4909 2.66672 16H0.888943C0.888943 17.4728 2.08285 18.6667 3.55561 18.6667V16.8889ZM2.66672 16V3.55556H0.888943V16H2.66672ZM5.33339 3.55556V1.77778H3.55561V3.55556H5.33339ZM5.33339 1.77778C5.33339 1.28686 5.73136 0.888889 6.22228 0.888889V-0.888889C4.74952 -0.888889 3.55561 0.305018 3.55561 1.77778H5.33339ZM6.22228 0.888889H9.77783V-0.888889H6.22228V0.888889ZM9.77783 0.888889C10.2688 0.888889 10.6667 1.28686 10.6667 1.77778H12.4445C12.4445 0.305019 11.2506 -0.888889 9.77783 -0.888889V0.888889ZM10.6667 1.77778V3.55556H12.4445V1.77778H10.6667Z" fill="#666666"/>
<path d="M6.22228 8V13.3333" stroke="#666666" stroke-width="1.77778" stroke-linecap="round" stroke-linejoin="round"/>
<path d="M9.77794 8V13.3333" stroke="#666666" stroke-width="1.77778" stroke-linecap="round" stroke-linejoin="round"/>
</g>
</svg>
